<?xml version="1.0" encoding="UTF-8" standalone="no"?>
<!DOCTYPE svg PUBLIC "-//W3C//DTD SVG 1.1//EN" "http://www.w3.org/Graphics/SVG/1.1/DTD/svg11.dtd">
<svg width="576.00" height="576.00" viewBox="0.00 0.00 2400.00 2400.00" xmlns="http://www.w3.org/2000/svg" xmlns:xlink="http://www.w3.org/1999/xlink">
<g stroke-linecap="round" transform="translate(87.00, 0.00)" id="pizzavector">
<path d="M1536.54,735.74 C1518.77,750.79 1487.89,776.99 1474.63,789.71 C1460.83,803.44 1437.37,829.39 1425.42,843.80 C1416.09,855.55 1397.09,880.16 1387.42,893.01 C1377.43,906.93 1357.75,934.91 1348.08,948.97 C1339.06,962.69 1321.67,989.80 1313.30,1003.19 C1306.89,1013.78 1288.71,1046.95 1281.13,1061.75 C1274.00,1076.38 1261.06,1105.14 1255.16,1119.40 C1249.53,1133.73 1239.07,1162.64 1234.24,1177.21 C1228.62,1195.24 1222.07,1221.55 1218.74,1236.61 C1215.70,1251.80 1210.45,1282.57 1208.28,1298.16 C1206.48,1313.87 1204.79,1345.86 1204.89,1362.13 C1205.08,1370.31 1206.07,1390.51 1206.56,1394.65 C1208.00,1406.62 1213.71,1440.19 1217.03,1455.73 C1220.81,1471.45 1230.76,1506.79 1234.93,1519.03 C1237.69,1526.65 1243.57,1541.50 1246.69,1548.72 C1249.92,1555.81 1256.74,1569.60 1260.32,1576.30 C1264.02,1582.86 1271.81,1595.74 1276.45,1602.24 C1281.28,1608.75 1291.37,1621.31 1296.64,1627.37 C1302.06,1633.29 1313.35,1644.68 1319.21,1650.15 C1325.22,1655.48 1337.70,1665.69 1344.14,1670.57 C1350.67,1675.29 1363.95,1684.25 1370.69,1688.48 C1377.51,1692.55 1391.36,1700.19 1398.39,1703.77 C1415.49,1711.99 1438.31,1720.64 1456.28,1725.93 C1463.71,1727.96 1478.77,1731.62 1486.41,1733.25 C1501.81,1736.23 1533.59,1740.15 1549.56,1741.89 C1565.47,1743.38 1597.19,1746.13 1613.00,1747.39 C1632.45,1748.75 1740.47,1752.49 1749.32,1753.09 C1757.07,1753.81 1772.74,1755.87 1778.63,1757.03 C1792.13,1759.70 1811.79,1766.81 1818.19,1770.13 C1822.59,1772.43 1830.39,1777.68 1833.79,1780.63 C1837.16,1783.59 1842.92,1790.16 1845.29,1793.76 C1849.27,1799.88 1855.58,1816.25 1856.65,1822.51 C1857.17,1825.62 1857.33,1831.30 1856.99,1833.88 C1856.48,1837.26 1854.69,1841.20 1852.17,1844.08 C1849.97,1846.52 1844.18,1850.57 1840.59,1852.18 C1836.96,1853.77 1828.42,1856.08 1823.38,1856.85 C1818.62,1857.55 1809.77,1857.92 1805.67,1857.58 C1801.59,1857.21 1793.92,1855.40 1790.68,1854.04 C1783.72,1851.06 1772.99,1843.88 1768.11,1838.82 C1763.06,1833.53 1753.23,1818.18 1749.87,1814.88 C1747.05,1812.16 1740.34,1807.55 1736.45,1805.66 C1732.54,1803.79 1723.58,1800.88 1718.66,1799.87 C1713.09,1798.74 1683.59,1798.02 1671.18,1798.18 C1657.97,1798.61 1628.73,1800.39 1613.50,1801.49 C1579.81,1804.74 1506.30,1813.12 1469.68,1817.20 C1452.38,1818.80 1418.44,1821.72 1401.81,1823.04 C1385.84,1824.06 1354.42,1825.90 1336.15,1826.58 C1317.61,1826.91 1281.31,1827.20 1264.08,1826.92 C1247.38,1826.38 1215.56,1824.57 1200.44,1823.30 C1185.73,1821.75 1156.71,1817.68 1142.38,1815.15 C1128.18,1812.30 1100.14,1805.60 1086.31,1801.76 C1072.59,1797.60 1041.88,1787.24 1026.55,1781.17 C1018.94,1777.96 1003.80,1771.34 996.27,1767.92 C981.37,1760.63 952.02,1744.74 937.76,1736.34 C924.02,1727.90 898.11,1710.91 885.93,1702.35 C880.11,1698.06 868.72,1689.45 863.15,1685.14 C855.21,1678.74 842.85,1667.68 835.04,1660.34 C827.56,1652.97 813.53,1638.17 807.00,1630.74 C797.77,1619.68 773.18,1587.24 767.30,1580.92 C763.91,1577.30 759.63,1573.72 756.94,1572.26 C755.94,1571.76 754.71,1572.18 754.13,1573.35 C753.72,1574.22 754.64,1580.97 755.83,1585.50 C756.65,1588.61 761.18,1603.02 762.27,1607.65 C763.51,1613.04 764.60,1622.48 764.45,1626.54 C764.25,1630.65 762.40,1637.43 760.98,1640.27 C759.49,1643.15 754.59,1647.57 751.32,1648.97 C748.01,1650.33 739.51,1651.54 734.77,1651.32 C730.16,1651.07 722.25,1648.78 718.97,1646.76 C715.74,1644.68 710.77,1638.96 708.73,1634.91 C707.49,1632.38 705.53,1625.81 704.93,1622.13 C703.78,1614.71 704.27,1597.47 705.97,1584.63 C707.60,1571.17 708.67,1557.31 708.51,1551.58 C708.44,1549.24 707.64,1542.78 706.89,1541.56 C705.70,1539.72 703.39,1538.42 702.16,1538.92 C699.60,1540.09 694.62,1545.05 691.88,1548.97 C689.26,1552.77 684.58,1562.09 682.68,1567.27 C679.99,1574.67 676.19,1590.91 674.84,1599.41 C673.69,1606.83 671.55,1627.48 669.78,1634.96 C668.83,1638.91 666.45,1645.99 665.03,1649.13 C663.67,1652.08 659.96,1658.19 657.53,1660.99 C654.82,1664.06 648.10,1668.53 644.30,1669.79 C640.47,1671.01 632.11,1671.53 627.61,1671.06 C623.53,1670.60 616.29,1668.43 613.11,1666.73 C609.83,1664.93 605.53,1661.11 603.36,1658.36 C601.54,1656.01 598.37,1650.57 597.02,1647.47 C595.68,1644.36 593.41,1637.17 592.61,1633.51 C591.75,1629.48 591.12,1621.55 591.32,1617.34 C591.78,1608.92 596.24,1593.19 599.84,1584.46 C602.42,1578.23 609.12,1565.21 613.23,1558.42 C616.82,1552.51 632.44,1530.20 632.49,1530.13 C637.32,1522.85 644.34,1507.85 646.49,1500.21 C648.61,1492.57 650.09,1477.80 649.70,1469.80 C649.37,1463.43 647.12,1450.50 645.20,1443.88 C643.25,1437.26 637.77,1423.76 634.23,1416.87 C630.64,1409.91 621.91,1395.88 617.58,1388.63 C613.34,1381.23 605.16,1365.94 601.22,1358.05 C593.52,1341.95 581.79,1313.27 575.73,1296.00 C571.19,1282.03 562.76,1252.89 558.88,1237.71 C555.22,1222.14 548.68,1190.06 545.95,1173.91 C543.60,1157.72 540.03,1125.22 538.80,1108.91 C537.96,1092.56 537.33,1061.09 537.57,1045.27 C538.16,1029.38 540.45,997.44 542.15,981.37 C544.22,965.35 548.51,933.65 550.73,917.96 C553.07,902.62 557.90,872.29 560.38,857.30 C564.00,838.51 571.44,801.43 575.27,783.15 C579.29,765.38 587.05,732.12 590.78,716.62 C593.91,704.47 598.38,687.52 599.72,682.71 C600.29,680.78 602.31,675.18 604.29,672.50 C605.23,671.30 607.09,670.12 608.74,669.80 C610.72,669.46 616.21,669.48 620.21,669.76 C635.20,670.86 662.66,675.37 665.33,676.01 C667.55,676.56 665.21,677.11 662.80,676.92 C651.38,675.65 615.23,671.38 602.01,668.21 C592.68,665.95 573.94,659.64 567.63,656.66 C560.83,653.39 550.27,647.23 545.02,643.50 C539.79,639.76 528.86,630.27 525.77,626.66 C523.68,624.19 519.88,618.11 518.25,614.61 C515.00,607.56 510.49,589.51 509.23,578.51 C507.79,565.70 508.03,552.13 508.26,546.07 C508.94,533.54 512.05,505.44 514.26,490.27 C516.93,474.28 525.82,429.35 527.80,421.61 C530.11,412.63 536.03,395.93 539.62,388.25 C543.23,380.59 551.74,366.59 556.63,360.25 C561.53,353.93 572.62,342.61 578.81,337.61 C585.01,332.63 598.69,324.00 606.17,320.34 C612.05,317.48 623.64,313.13 629.89,311.19 C635.48,309.55 647.19,306.80 653.22,305.61 C659.40,304.57 672.16,302.90 678.74,302.28 C692.18,301.31 720.97,301.35 736.31,302.36 C751.93,303.64 785.22,308.32 802.61,311.43 C820.36,314.81 855.76,321.19 873.41,324.20 C890.94,326.81 925.90,331.66 943.32,333.90 C960.62,335.74 995.13,339.05 1012.32,340.51 C1029.40,341.59 1064.11,343.57 1081.73,344.48 C1099.23,344.99 1134.08,345.59 1151.44,345.68 C1168.66,345.37 1202.98,344.34 1220.08,343.62 C1254.00,341.36 1320.05,335.89 1351.18,334.12 C1366.08,333.61 1395.21,332.97 1409.45,332.84 C1423.18,332.98 1449.66,333.84 1462.39,334.55 C1469.41,335.01 1490.60,337.43 1501.18,338.88 C1511.47,340.48 1531.25,344.14 1540.73,346.19 C1549.94,348.40 1567.54,353.26 1575.92,355.91 C1585.66,359.28 1599.47,364.73 1606.74,368.04 C1614.69,371.81 1626.74,378.38 1632.50,382.09 C1638.26,385.81 1648.41,393.64 1652.82,397.75 C1657.20,401.87 1664.63,410.51 1667.67,415.02 C1671.35,420.53 1675.58,429.90 1677.31,437.42 C1678.84,444.19 1679.58,458.47 1678.79,465.99 C1677.97,473.52 1674.01,489.36 1670.88,497.60 C1670.44,498.74 1660.77,522.52 1657.72,530.63 C1654.87,538.61 1649.76,554.24 1647.50,561.88 C1643.68,577.19 1635.10,610.85 1633.42,628.90 C1632.07,643.71 1634.37,679.15 1633.89,690.29 C1633.61,696.73 1632.05,709.84 1630.49,715.29 C1629.22,719.62 1626.17,727.31 1624.38,730.67 C1622.57,734.00 1618.40,739.73 1616.10,742.04 C1613.71,744.40 1608.07,748.23 1604.74,749.75 C1601.39,751.25 1593.72,753.45 1589.40,754.14 C1583.26,755.10 1567.19,754.75 1558.82,753.82 C1545.97,752.38 1488.58,740.44 1488.07,740.26 C1486.53,739.73 1478.44,736.75 1474.83,735.73" fill="none" stroke="rgb(27, 27, 27)" stroke-width="20.00" stroke-opacity="0.90" stroke-linejoin="round"/>
<path d="M912.35,674.15 C912.17,674.15 911.64,674.17 911.82,674.15 C911.92,674.14 1002.45,666.75 1029.01,665.71 C1047.75,665.43 1085.46,666.23 1103.84,667.27 C1121.71,668.68 1157.64,672.70 1175.70,675.31 C1193.83,678.31 1227.90,684.95 1243.90,688.23 C1257.50,691.32 1284.23,698.44 1284.48,698.50 C1286.17,698.92 1288.36,700.15 1290.69,702.09 C1294.33,705.18 1297.00,710.08 1299.83,716.65 C1300.43,718.03 1301.53,720.46 1302.00,721.49" fill="none" stroke="rgb(27, 27, 27)" stroke-width="20.00" stroke-opacity="0.90" stroke-linejoin="round"/>
<path d="M599.08,1740.44 C599.09,1739.07 599.11,1735.34 599.08,1733.96 C599.04,1732.58 598.83,1729.38 598.75,1728.23" fill="none" stroke="rgb(27, 27, 27)" stroke-width="20.00" stroke-opacity="0.90" stroke-linejoin="round"/>
<path d="M597.97,1722.84 C597.97,1722.84 597.97,1721.84 597.97,1721.84 C593.43,1732.87 577.56,1771.36 575.24,1778.16 C572.23,1787.08 568.30,1803.98 567.38,1811.95 C566.94,1815.92 566.50,1825.12 566.66,1829.43 C566.85,1834.12 568.09,1843.08 569.14,1847.34 C570.22,1851.59 573.18,1859.49 575.19,1863.47 C578.97,1870.88 587.24,1882.38 591.46,1886.10 C593.85,1888.16 598.91,1891.19 601.95,1892.03 C605.10,1892.85 611.52,1892.51 614.85,1891.34 C618.56,1889.98 624.11,1885.75 626.09,1882.53 C628.00,1879.30 629.97,1871.07 630.08,1865.69 C630.14,1861.12 628.00,1846.53 626.13,1838.71 C622.97,1825.62 609.44,1786.55 603.80,1769.93 C601.74,1763.32 596.21,1744.81 595.25,1739.61 C594.35,1734.61 594.38,1730.12 594.78,1725.07 C594.96,1722.90 595.21,1719.95 595.27,1719.17" fill="none" stroke="rgb(27, 27, 27)" stroke-width="20.00" stroke-opacity="0.90" stroke-linejoin="round"/>
</g>
</svg>
